<?xml version="1.0" encoding="UTF-8" standalone="no"?>
<svg   xmlns="http://www.w3.org/2000/svg"
       xmlns:svg="http://www.w3.org/2000/svg"
       xmlns:oryx="http://www.b3mn.org/oryx"
       xmlns:xlink="http://www.w3.org/1999/xlink"
       width="102"   height="100"   version="1.0">
    <defs></defs>
    <oryx:magnets>
        <oryx:magnet oryx:cx="1" oryx:cy="20" oryx:anchors="left" />
        <oryx:magnet oryx:cx="1" oryx:cy="40" oryx:anchors="left" />
        <oryx:magnet oryx:cx="1" oryx:cy="60" oryx:anchors="left" />
        <oryx:magnet oryx:cx="25" oryx:cy="79" oryx:anchors="bottom" />
        <oryx:magnet oryx:cx="50" oryx:cy="79" oryx:anchors="bottom" />
        <oryx:magnet oryx:cx="75" oryx:cy="79" oryx:anchors="bottom" />
        <oryx:magnet oryx:cx="99" oryx:cy="20" oryx:anchors="right" />
        <oryx:magnet oryx:cx="99" oryx:cy="40" oryx:anchors="right" />
        <oryx:magnet oryx:cx="99" oryx:cy="60" oryx:anchors="right" />
        <oryx:magnet oryx:cx="25" oryx:cy="1" oryx:anchors="top" />
        <oryx:magnet oryx:cx="50" oryx:cy="1" oryx:anchors="top" />
        <oryx:magnet oryx:cx="75" oryx:cy="1" oryx:anchors="top" />
        <oryx:magnet oryx:cx="50" oryx:cy="40" oryx:default="yes" />
    </oryx:magnets>
    <g pointer-events="fill" oryx:minimumSize="50 40">
        <rect id="text_frame" oryx:anchors="bottom top right left" x="1" y="14" width="94" height="79" rx="10" ry="10" stroke="none" stroke-width="0" fill="none" />
        <rect id="bg_frame" oryx:resize="vertical horizontal" x="0" y="13" width="100" height="80" rx="10" ry="10" stroke="#bbbbbb" stroke-width="1" fill="#f9f9f9" />
        <text font-size="10" id="text_number" x="50" y="28" oryx:align="middle center" oryx:fittoelem="text_frame" stroke="#373e48" ></text>
        <line oryx:resize="vertical horizontal" fill="none" stroke="#bbbbbb" x1="0" y1="33"  x2="100" y2="33"  stroke-width="1" />
        <text font-size="12" id="text_input" x="0" y="53" oryx:align="middle left" oryx:fittoelem="text_frame" stroke="#373e48" >2</text>
        <text font-size="12" id="text_output" x="100" y="53" oryx:align="middle right" oryx:fittoelem="text_frame" stroke="#373e48" >3</text>
        <text font-size="12" id="text_name" x="50" y="53" oryx:align="middle center" oryx:fittoelem="text_frame" stroke="#373e48" ></text>
        <line oryx:resize="vertical horizontal" fill="none" stroke="#bbbbbb" x1="0" y1="68"  x2="100" y2="68" stroke-width="1" />
        <line oryx:resize="vertical horizontal" fill="none" stroke="#bbbbbb" x1="50" y1="68"  x2="50" y2="93" stroke-width="1" />
        <text font-size="12" id="text_role" x="15" y="83" oryx:align="middle center" oryx:fittoelem="text_frame" stroke="#373e48" ></text>
        <text font-size="12" id="text_department" x="75" y="83" oryx:align="middle center" oryx:fittoelem="text_frame" stroke="#373e48" ></text>
        <g id="attachment_sign" transform="">
            <path oryx:anchors="top right" d="m94.37729,19.88611l-0.00031,-0.0003a2.44436,2.39692 0 0 0 0.10221,-0.10325c0.86814,-0.93368 0.8267,-2.36603 -0.07513,-3.25032a2.43649,2.38921 0 0 0 -0.08148,-0.07628c-0.96706,-0.86459 -2.45866,-0.80902 -3.35652,0.11592l-0.00058,-0.00057l-4.71883,4.62809l0.00022,0.00021c-0.51879,0.51943 -0.51515,1.35227 0.00982,1.86706l0.00227,0.00221c0.52572,0.51314 1.3734,0.51494 1.90177,0.00744l0.00028,0.00027l4.01225,-3.93438l-0.43432,-0.4259l-3.20056,3.13844l0,-0.00002l-0.80016,0.78464l-0.00025,0.00025l-0.00032,0.0003l-0.02699,0.02646l-0.00065,-0.00064c-0.28931,0.257 -0.73796,0.24934 -1.0175,-0.02352l-0.0015,-0.00147c-0.27927,-0.27384 -0.2878,-0.71492 -0.02536,-0.99909l-0.0007,-0.00069l0.82767,-0.8116l2.83838,-2.7833l1.08003,-1.0599l0.0004,0.00039c0.31896,-0.32832 0.74734,-0.52011 1.21078,-0.5411c0.47685,-0.02159 0.93375,0.14021 1.2865,0.45558a1.86305,1.82689 0 0 1 0.06098,0.05708l0.00004,0.00005l0.00003,0.00003c0.32506,0.31874 0.51026,0.74326 0.5215,1.1954c0.01129,0.45343 -0.15421,0.88783 -0.46599,1.22316a1.82763,1.79216 0 0 1 -0.08716,0.08743l0.00038,0.00037l-1.07991,1.05978l-2.2506,2.20694l-1.43887,1.41094l-0.00635,0.00623l-0.00072,-0.0007c-0.49338,0.45903 -1.13116,0.72618 -1.81741,0.75726c-0.75642,0.03424 -1.48115,-0.22241 -2.04071,-0.72267a2.91966,2.863 0 0 1 -0.09654,-0.09039c-0.5158,-0.50579 -0.8097,-1.17929 -0.82756,-1.89643c-0.01792,-0.71928 0.2446,-1.40837 0.73918,-1.94031c0.0117,-0.01257 0.02359,-0.02491 0.03547,-0.03723l-0.00093,-0.00092l0.0142,-0.01392l4.04368,-3.96521l-0.43432,-0.4259l-4.04366,3.96518l0.00051,0.0005a3.50008,3.43215 0 0 0 -0.06884,0.07169c-1.24689,1.34106 -1.18733,3.39829 0.10793,4.66843a3.51025,3.44212 0 0 0 0.11703,0.10958c1.35082,1.20769 3.41416,1.16526 4.71271,-0.05992l0.00065,0.00064l4.77383,-4.68203l0.00003,0.00001l0,0l0,0z" id="svg_5" stroke="null"/>
        </g>
        <g id="important_sign">
            <path oryx:anchors="top right" stroke="null" d="m76.97225,14.82904c-0.22216,-0.38479 -0.58568,-0.38479 -0.80784,0l-5.63919,9.76729c-0.22216,0.38476 -0.04039,0.69959 0.40392,0.69959l11.27834,0c0.44431,0 0.62608,-0.31483 0.40392,-0.69959l-5.63916,-9.76729zm-0.4225,2.80069c0.17682,0 0.32569,0.00931 0.32569,0.18613c0,0.13959 -0.02789,0.36295 -0.05584,0.75381c-0.09306,1.09811 -0.14137,2.58929 -0.14137,2.58929c-0.01438,0.44409 -0.05968,0.81999 -0.10059,0.83537c0,0 0,0 -0.02789,0c-0.02792,0 -0.02792,0 -0.02792,0c-0.02559,-0.01538 -0.05978,-0.39119 -0.07597,-0.83524c0,0 -0.05435,-1.49131 -0.13808,-2.58942c-0.03723,-0.39087 -0.05587,-0.61419 -0.05587,-0.75381c0,-0.17682 0.15821,-0.18613 0.29784,-0.18613zm0.01858,6.15798c-0.25731,0 -0.46587,-0.20855 -0.46587,-0.46587c0,-0.25725 0.20855,-0.46583 0.46587,-0.46583c0.25725,0 0.46583,0.20858 0.46583,0.46583c0,0.25731 -0.20858,0.46587 -0.46583,0.46587z" id="svg_1"/>
        </g>
        <g id="progress_sign">
            <path stroke="null" id="svg_1" d="m90.68935,11.00591l-0.45238,0l0,-4.0627c0,-0.6686 -0.13104,-1.31741 -0.38947,-1.9284c-0.24952,-0.58996 -0.60666,-1.11971 -1.06149,-1.57454s-0.98458,-0.81198 -1.57454,-1.06151c-0.61099,-0.25843 -1.25981,-0.38947 -1.9284,-0.38947s-1.31741,0.13103 -1.9284,0.38947c-0.58996,0.24954 -1.11972,0.60667 -1.57454,1.06151s-0.81197,0.98458 -1.06151,1.57454c-0.25843,0.611 -0.38947,1.25981 -0.38947,1.9284l0,4.0627l-0.39935,0c-0.21849,0 -0.39563,0.17714 -0.39563,0.39563l0,1.73029c0,0.21849 0.17714,0.39563 0.39563,0.39563l10.75956,0c0.21849,0 0.39563,-0.17714 0.39563,-0.39563l0,-1.73029c-0.00001,-0.2185 -0.17714,-0.39563 -0.39564,-0.39563l0,0zm-9.56895,-4.0627c0,-1.11189 0.43298,-2.15722 1.2192,-2.94343c0.78624,-0.78624 1.83157,-1.21922 2.94346,-1.21922s2.15723,0.43298 2.94344,1.21922c0.78623,0.78622 1.21922,1.83155 1.21922,2.94343l0,4.05877l-8.32532,0l0,-4.05877l0,0zm9.17332,5.79298l-9.96831,0l0,-0.93904l9.96831,0l0,0.93904z"/>
            <path stroke="null" id="svg_2" d="m84.40716,3.71445c-1.12604,0.64077 -2.01336,1.59618 -2.56605,2.76291c-0.14561,0.30738 -0.01351,0.67415 0.29506,0.8192c0.0852,0.04004 0.1749,0.059 0.26324,0.059c0.23166,0 0.45371,-0.1304 0.55913,-0.35292c0.44393,-0.93713 1.15678,-1.70459 2.06151,-2.21942c0.29627,-0.1686 0.39924,-0.54452 0.22998,-0.83963c-0.16925,-0.29516 -0.5466,-0.39774 -0.84288,-0.22913l0,-0.00001l0,0z"/>
        </g>
    </g>
</svg>